HIERARCHY
ROOT Hips
{
	OFFSET	0.00	0.00	0.00
	CHANNELS 6 Xposition Yposition Zposition Zrotation Xrotation Yrotation
	JOINT LeftUpLeg
	{
		OFFSET	 0.126116	-0.014019	-0.065224
		CHANNELS 3 Zrotation Xrotation Yrotation
		JOINT LeftLeg
		{
			OFFSET	 0.000000	 0.000000	 0.569914
			CHANNELS 3 Zrotation Xrotation Yrotation
			JOINT LeftFoot
			{
				OFFSET	 0.000000	 0.000000	 0.544423
				CHANNELS 3 Zrotation Xrotation Yrotation
				JOINT LeftToeBase
				{
					OFFSET	 0.000000	 0.000000	 0.207117
					CHANNELS 3 Zrotation Xrotation Yrotation
					End Site
					{
						OFFSET	 0.000000	 0.000000	 0.207117
					}
				}
			}
		}
	}
	JOINT RightUpLeg
	{
		OFFSET	-0.124023	-0.008373	-0.065224
		CHANNELS 3 Zrotation Xrotation Yrotation
		JOINT RightLeg
		{
			OFFSET	 0.000000	 0.000000	 0.570047
			CHANNELS 3 Zrotation Xrotation Yrotation
			JOINT RightFoot
			{
				OFFSET	 0.000000	 0.000000	 0.544354
				CHANNELS 3 Zrotation Xrotation Yrotation
				JOINT RightToeBase
				{
					OFFSET	 0.000000	 0.000000	 0.207540
					CHANNELS 3 Zrotation Xrotation Yrotation
					End Site
					{
						OFFSET	 0.000000	 0.000000	 0.207540
					}
				}
			}
		}
	}
	JOINT Spine
	{
		OFFSET	 0.000184	-0.007763	 0.117403
		CHANNELS 3 Zrotation Xrotation Yrotation
		JOINT Spine1
		{
			OFFSET	 0.000000	 0.000000	 0.137269
			CHANNELS 3 Zrotation Xrotation Yrotation
			JOINT Spine2
			{
				OFFSET	 0.000000	 0.000000	 0.156879
				CHANNELS 3 Zrotation Xrotation Yrotation
				JOINT LeftShoulder
				{
					OFFSET	 0.080501	-0.002496	 0.160144
					CHANNELS 3 Zrotation Xrotation Yrotation
					JOINT LeftArm
					{
						OFFSET	 0.000000	 0.000000	 0.164363
						CHANNELS 3 Zrotation Xrotation Yrotation
						JOINT LeftForeArm
						{
							OFFSET	 0.000000	 0.000000	 0.364576
							CHANNELS 3 Zrotation Xrotation Yrotation
							JOINT LeftHand
							{
								OFFSET	 0.000000	 0.000000	 0.360812
								CHANNELS 3 Zrotation Xrotation Yrotation
								JOINT LeftHandIndex1
								{
									OFFSET	 0.000000	 0.000000	 0.086006
									CHANNELS 3 Zrotation Xrotation Yrotation
									JOINT LeftHandIndex2
									{
										OFFSET	 0.000000	 0.000000	 0.047236
										CHANNELS 3 Zrotation Xrotation Yrotation
										JOINT LeftHandIndex3
										{
											OFFSET	-0.004284	-0.000551	 0.038166
											CHANNELS 3 Zrotation Xrotation Yrotation
											End Site
											{
												OFFSET	-0.004284	-0.000551	 0.038166
											}
										}
									}
								}
							}
						}
					}
				}
				JOINT Neck
				{
					OFFSET	 0.000000	 0.000000	 0.176489
					CHANNELS 3 Zrotation Xrotation Yrotation
					JOINT Head
					{
						OFFSET	 0.000000	-0.001747	 0.077940
						CHANNELS 3 Zrotation Xrotation Yrotation
						End Site
						{
							OFFSET	 0.000000	-0.001747	 0.077940
						}
					}
				}
				JOINT RightShoulder
				{
					OFFSET	-0.080363	 0.000306	 0.159706
					CHANNELS 3 Zrotation Xrotation Yrotation
					JOINT RightArm
					{
						OFFSET	 0.000000	 0.000000	 0.164196
						CHANNELS 3 Zrotation Xrotation Yrotation
						JOINT RightForeArm
						{
							OFFSET	 0.000000	 0.000000	 0.365611
							CHANNELS 3 Zrotation Xrotation Yrotation
							JOINT RightHand
							{
								OFFSET	 0.000000	 0.000000	 0.360648
								CHANNELS 3 Zrotation Xrotation Yrotation
								JOINT RightHandIndex1
								{
									OFFSET	 0.000000	 0.000000	 0.069977
									CHANNELS 3 Zrotation Xrotation Yrotation
									JOINT RightHandIndex2
									{
										OFFSET	 0.000000	 0.000000	 0.052305
										CHANNELS 3 Zrotation Xrotation Yrotation
										JOINT RightHandIndex3
										{
											OFFSET	 0.009002	-0.000782	 0.042196
											CHANNELS 3 Zrotation Xrotation Yrotation
											End Site
											{
												OFFSET	 0.009002	-0.000782	 0.042196
											}
										}
									}
								}
							}
						}
					}
				}
			}
		}
	}
}
MOTION
Frames:    13
Frame Time: 0.03333334
 0.011604	 0.010987	 1.199174	 5.387075	-0.716468	-2.740532	 12.069970	-9.431155	-175.461100	 1.152798	-38.948750	 0.502964	 69.644240	 83.493800	-73.788760	-2.368923	 31.693540	-0.071706	-20.484590	-34.046180	-177.605700	 10.332250	-45.837400	 8.004101	 5.140449	 75.434300	-0.074866	 2.358971	 33.000920	 0.103239	-15.575490	 8.201405	 1.935014	-2.179501	 2.524937	-1.365186	 3.107758	-2.772170	 1.585531	-94.050610	 58.971360	 175.148200	 9.581313	 28.559200	-40.899430	-5.555227	 0.169568	-3.031256	-2.793859	-21.067240	-9.121299	-4.866979	 19.324450	-2.796300	-3.873296	 21.577910	 2.194387	-4.805053	 5.583268	 0.144758	-0.051341	-5.095940	 0.213582	 1.032773	 1.630110	 2.639686	 89.738280	 61.718170	 179.895100	-19.861960	 53.274640	 11.782100	 1.912949	-0.432461	 7.284327	-3.054018	-6.200384	 0.624858	 6.282907	 24.020140	-0.545058	 1.987620	 43.861620	-7.083928	 0.698448	 23.515760	 3.481939
 0.006939	-0.082211	 1.190793	 6.364341	 0.607448	-3.158274	 11.301220	-4.945584	-176.645900	 1.555288	-36.591630	 0.716932	 97.965490	 85.375220	-102.195800	-2.365470	 32.251940	-0.084433	-24.444220	-36.246980	 178.805500	 9.723925	-28.397070	 5.028367	-2.065365	 72.309460	 5.849512	 2.361440	 32.630390	 0.094669	-25.904490	 6.993796	 1.829434	-2.368903	 3.559152	-0.927004	 2.572224	-4.051578	 1.329153	-94.372280	 58.984930	 174.460700	 6.622400	 23.934770	-42.322230	-11.309410	 0.890495	-5.963915	-5.202364	-24.167590	-10.380500	-4.845827	 19.818460	-2.819569	-3.848095	 21.898060	 2.168790	-4.793509	 5.719232	 0.136786	-0.004695	-5.185309	 0.316305	 0.611334	 1.182562	 2.508464	 89.553520	 61.964530	 179.448800	-18.886920	 55.215440	 9.048016	 4.917500	 0.819103	 6.020188	-1.792050	-7.683353	-0.167143	 6.237588	 21.220090	-0.622210	 2.262521	 41.460770	-7.326078	 1.319681	 20.687610	 3.186474
 0.001485	-0.156428	 1.176683	 6.607790	 1.068143	-3.654322	 11.169420	-0.506357	-177.733400	 1.736146	-34.651360	 0.786700	 127.115800	 86.310660	-131.227400	-2.352588	 34.129010	-0.128103	-24.143780	-39.684310	 177.239800	 9.547269	-21.371330	 3.790805	 0.725029	 78.136300	 1.771528	 2.346912	 34.660260	 0.142362	-33.731590	 6.237705	 2.000133	-2.347638	 4.883876	-0.502270	 2.035559	-5.217183	 0.993984	-94.501010	 58.942120	 174.193300	 4.604545	 21.840770	-43.287850	-16.116770	 1.905153	-8.418748	-8.099351	-26.409030	-11.176240	-4.829003	 20.333650	-2.875645	-3.813398	 22.334590	 2.133542	-4.756681	 6.151160	 0.111262	 0.048442	-5.319114	 0.348433	 0.128558	 0.796191	 2.322896	 89.411980	 62.033350	 179.105000	-17.086790	 56.235560	 4.962360	 6.968470	 1.814253	 8.481014	-0.877867	-9.526711	-1.736816	 6.182807	 18.114420	-0.713606	 2.651653	 37.668860	-7.662217	 1.967837	 17.599690	 2.906594
-0.006251	-0.234197	 1.160728	 6.978462	 1.042829	-3.690361	 10.778540	 4.740173	-179.492300	 2.204302	-31.626040	 0.971166	 124.471300	 88.686560	-128.477900	-2.307105	 39.182470	-0.253919	-24.351060	-43.839410	 175.545900	 10.051850	-21.700540	 4.038386	-0.903474	 77.106260	 3.054029	 2.337389	 35.834800	 0.170799	-40.503860	 6.129882	 1.897895	-2.254373	 5.400892	-0.261878	 1.331419	-6.149918	 0.628974	-94.529970	 59.094890	 174.106400	 3.109733	 21.259850	-43.438500	-20.005760	 3.211119	-10.674640	-11.680030	-29.197050	-13.675240	-4.865146	 20.563200	-3.153494	-3.774406	 22.819230	 2.093950	-4.695856	 6.858760	 0.068786	 0.152034	-5.450602	 0.306024	-0.379214	 0.565216	 1.934228	 89.356880	 61.775280	 178.981600	-15.039270	 56.428620	 0.871092	 9.143244	 3.109416	 10.741460	 0.421835	-12.147280	-2.865326	 6.176992	 14.919870	-0.533417	 2.960691	 34.283680	-7.922501	 2.604901	 14.435850	 2.661897
-0.016212	-0.324477	 1.148974	 7.359531	 0.602993	-2.690066	 10.942900	 11.442110	 177.201400	 1.716501	-26.569360	 0.610087	-14.938010	 84.033000	 12.560700	-2.141862	 49.776500	-0.577454	-22.521330	-42.046160	 174.888200	 6.326786	-21.553000	 2.614186	-8.615624	 69.564120	 16.114320	 2.340863	 35.417460	 0.160626	-45.748950	 6.090487	 0.861148	-2.327873	 5.555873	-0.170375	 0.415958	-6.489449	 0.132817	-94.447680	 59.378790	 174.235400	 2.402047	 21.231440	-42.508060	-23.846320	 4.717615	-12.656270	-15.200460	-30.911080	-15.777190	-4.894805	 20.727770	-3.378627	-3.752581	 23.087700	 2.071792	-4.621440	 7.714661	 0.016312	 0.267964	-5.474260	 0.239173	-0.953018	 0.564589	 1.987550	 89.351260	 61.402600	 178.981800	-13.452070	 56.010760	-2.209940	 11.402500	 4.606944	 12.732780	 1.379394	-14.727820	-3.155605	 6.280148	 11.789290	 0.077795	 3.143420	 32.108180	-8.073089	 3.156811	 11.600420	 2.475881
-0.027642	-0.428260	 1.141989	 9.205746	-0.553937	-1.355949	 11.609290	 14.425260	 172.441400	 0.297105	-29.576280	-0.027453	-11.593670	 69.559040	 14.662000	-1.589068	 64.420590	-1.332676	-21.880090	-38.631850	 174.636400	 7.208736	-26.768440	 3.606605	-15.987080	 60.580970	 27.373030	 2.339991	 35.524050	 0.163208	-49.310450	 6.381355	-0.386300	-2.647373	 5.845054	-0.278085	-0.956398	-6.566043	-0.444502	-94.326980	 59.146330	 174.532200	 3.266933	 21.140830	-41.203320	-27.514920	 6.464167	-14.480390	-17.227590	-29.847730	-16.552530	-4.862342	 21.089230	-3.308903	-3.708510	 23.624140	 2.027062	-4.539238	 8.647570	-0.042303	 0.391759	-5.370042	 0.271297	-1.863565	 0.942659	 2.115876	 89.119960	 61.183720	 178.447200	-12.144630	 55.104880	-3.594977	 14.997010	 6.356832	 14.560320	 3.844351	-16.762950	-0.773428	 6.355920	 9.154087	 0.444962	 3.356529	 29.393060	-8.245134	 3.548877	 9.538562	 2.359151
-0.040416	-0.521222	 1.142123	 10.251150	-1.159062	 0.011197	 16.252570	 10.472800	 166.013700	 1.799454	-40.046650	 0.930963	-8.242652	 51.323700	 20.672740	-1.257049	 68.740430	-1.721907	-25.893370	-38.537880	 172.344600	 7.625443	-36.763390	 5.040622	-12.927800	 60.874010	 25.368970	 2.363570	 32.302740	 0.087123	-48.578800	 6.393689	-1.352772	-2.453038	 5.750739	-0.379158	-2.340587	-6.445271	-1.026646	-94.132300	 59.781730	 174.854500	 5.125456	 22.409870	-40.062030	-28.853640	 7.971945	-15.784590	-18.197130	-28.419280	-17.907950	-4.780305	 21.384400	-2.915648	-3.639043	 24.454080	 1.956568	-4.483580	 9.271737	-0.082363	 0.362106	-5.362570	 0.188643	-2.950509	 1.241860	 2.043480	 88.996060	 60.389920	 178.205200	-11.524390	 53.971420	-4.233554	 19.009390	 7.891412	 15.867190	 7.415934	-18.384830	 2.016522	 6.392722	 8.812182	 0.595321	 3.387030	 28.988060	-8.269413	 3.673066	 8.877939	 2.324930
-0.052710	-0.624511	 1.148723	 8.286779	-2.142327	 1.286427	 24.834210	 2.320225	 158.675900	-1.444667	-53.545810	-1.445858	 2.432641	 44.348920	 16.176000	-2.376182	 30.422290	-0.043164	-26.131310	-35.213250	 171.589100	 6.633478	-43.360500	 5.089753	-12.018440	 66.534780	 25.029820	 2.374330	 30.484270	 0.046001	-42.182990	 7.070851	-2.428843	-1.677538	 4.720294	 0.404642	-3.413091	-5.835591	-2.139407	-94.023320	 59.654930	 175.110700	 7.117252	 24.294920	-38.072810	-29.838450	 9.536380	-16.937220	-19.615100	-28.104880	-17.971430	-4.707952	 22.232730	-2.745301	-3.555936	 25.422670	 1.872297	-4.393619	 10.267710	-0.147724	 0.232826	-5.388991	 0.153002	-4.381529	 1.177233	 2.147746	 89.179580	 60.295920	 178.628500	-12.078010	 53.283240	-2.793524	 22.984010	 9.482823	 17.014830	 11.553350	-19.987670	 4.983959	 6.401546	 10.926390	 0.619771	 3.214629	 31.222890	-8.131037	 3.468512	 9.964199	 2.382011
-0.059057	-0.710250	 1.158554	 6.423328	-3.051873	 1.609223	 26.411290	-5.211835	 157.689800	-6.760223	-65.660120	-6.486367	 5.773469	 53.274720	 9.841697	-2.381032	 29.481570	-0.022389	-25.662820	-31.040680	 172.257000	 6.018450	-46.217760	 4.903308	-14.837310	 72.673450	 27.647540	 2.374318	 30.486460	 0.046050	-33.836860	 7.754876	-2.734319	-0.881865	 4.510751	 0.909462	-4.329514	-5.464102	-2.688850	-93.905800	 59.492980	 175.388300	 8.950722	 26.187380	-36.963580	-30.092890	 10.691870	-17.681430	-21.345990	-27.794310	-17.783660	-4.614122	 23.496230	-2.557730	-3.477150	 26.317430	 1.792426	-4.268249	 11.629450	-0.240043	 0.096599	-5.273468	 0.034366	-5.663511	 1.027136	 1.953121	 89.460070	 60.150650	 179.270500	-13.422980	 51.832280	-0.358685	 25.787110	 12.057580	 22.414510	 15.095030	-21.656570	 6.956814	 6.377568	 13.900780	 0.486052	 2.979964	 34.060650	-7.938506	 3.066458	 12.070220	 2.504621
-0.062682	-0.804437	 1.173818	 4.795095	-3.707373	 1.231727	 23.566000	-13.010390	 162.767200	-5.476835	-75.032600	-5.633072	 4.328465	 63.818800	 6.626013	-2.375954	 30.464800	-0.044109	-25.172520	-25.683650	 174.315600	 4.028201	-46.962850	 3.502032	-17.723340	 78.246020	 30.708960	 2.374310	 30.489140	 0.046104	-21.871860	 8.248698	-2.589924	 0.108241	 4.794033	 1.385162	-5.424680	-5.189245	-3.073481	-93.742420	 59.839160	 175.697800	 11.612880	 29.423350	-36.289330	-28.550930	 11.600830	-18.224960	-21.711030	-24.927430	-15.094270	-4.577571	 24.293330	-2.589146	-3.399510	 27.177220	 1.713767	-4.150054	 12.885050	-0.328306	-0.091743	-5.059845	-0.064433	-7.155784	 0.843960	 1.762923	 89.593120	 59.756310	 179.577100	-14.837900	 48.282040	 7.579076	 30.072440	 12.947010	 21.787430	 18.302740	-22.547960	 8.800945	 6.376472	 16.987540	 0.437543	 2.728023	 36.864960	-7.727146	 2.529537	 14.816470	 2.689197
-0.064005	-0.882958	 1.189508	 3.314018	-3.702493	 1.058838	 24.142150	-19.072430	 167.659700	-1.622354	-74.134560	-1.899889	 0.110755	 69.965090	 8.616598	-2.370894	 31.363600	-0.064238	-24.938800	-20.669790	 175.950200	 1.949125	-45.019350	 1.915533	-18.971820	 81.504310	 32.261970	 2.372859	 30.751450	 0.051967	-9.979627	 8.256503	-2.821111	 1.015765	 4.725026	 1.943449	-6.277890	-4.985839	-3.539006	-93.564180	 60.187940	 176.045900	 14.236630	 33.006090	-35.345340	-26.149110	 11.991760	-18.461720	-20.563430	-22.562350	-12.031270	-4.540008	 25.157580	-2.646076	-3.348485	 27.730940	 1.662091	-4.102737	 13.380130	-0.363972	-0.279461	-4.848565	-0.136294	-8.372275	 0.523975	 2.113576	 89.768450	 59.917310	 179.969300	-15.394070	 44.607840	 15.041790	 33.872370	 12.052260	 18.481850	 19.786800	-20.761910	 9.474868	 6.378136	 19.042520	 0.410235	 2.533889	 38.868710	-7.561405	 2.149291	 16.711140	 2.833732
-0.065620	-0.993533	 1.206243	 1.241254	-3.011873	 0.277146	 30.400980	-26.686380	 175.989300	-6.325658	-65.483460	-6.080998	 14.004870	 76.216570	-9.823025	-2.383584	 28.946370	-0.010703	-23.805600	-14.140610	 178.635700	-0.158753	-41.301560	 0.395480	-20.104820	 85.041330	 33.629580	 2.366634	 31.813320	 0.075941	 6.570202	 7.920860	-2.443496	 2.092763	 4.780646	 2.655232	-7.186598	-4.816721	-4.073328	-93.183150	 60.266850	 176.880500	 17.116860	 37.643260	-33.113790	-23.720710	 11.921710	-18.451550	-18.980730	-18.860230	-7.824389	-4.486518	 26.193370	-2.659134	-3.266913	 28.597790	 1.579504	-4.039931	 14.030500	-0.411574	-0.443041	-4.784772	-0.191664	-9.751381	 0.346634	 2.264591	 90.102520	 60.431450	-179.267400	-16.803440	 41.644460	 23.621370	 36.521880	 12.018570	 18.441920	 20.369820	-17.361830	 10.599640	 6.383220	 20.067830	 0.421520	 2.421584	 39.969810	-7.464498	 1.951148	 17.680930	 2.913417
-0.066663	-1.063232	 1.212609	-0.212409	-1.964524	-1.021957	 36.814050	-28.434440	-176.391400	-6.573822	-54.148450	-5.623603	 27.693660	 76.772730	-25.390040	-2.382541	 29.168690	-0.015547	-23.198030	-10.831340	-179.048600	-0.728479	-38.803310	 0.018451	-38.824960	 86.381610	 52.586490	 2.353389	 33.797240	 0.121863	 17.028100	 7.552664	-1.187477	 2.727394	 4.872844	 2.912527	-7.588470	-4.849209	-4.171882	-92.968950	 60.099050	 177.368900	 18.121250	 40.135380	-30.900990	-21.192820	 11.489380	-18.238850	-17.694630	-16.588540	-6.161625	-4.382003	 27.975820	-2.581309	-3.138357	 29.919950	 1.449420	-3.925875	 15.192360	-0.498822	-0.505198	-4.847501	-0.161270	-10.475510	 0.340156	 2.436638	 90.183680	 60.735570	-179.072600	-19.240970	 42.410220	 23.515490	 33.571470	 18.349780	 32.392800	 20.963430	-14.297340	 12.246150	 6.403702	 19.931120	 0.556595	 2.400376	 40.173120	-7.446120	 1.918621	 17.838980	 2.926778
